<svg width="1920" height="560" viewBox="0 0 1920 560" fill="none" xmlns="http://www.w3.org/2000/svg">
  <rect width="1920" height="560" fill="#020B1B"/>
  <radialGradient id="leftGlow" cx="0" cy="0" r="1" gradientUnits="userSpaceOnUse" gradientTransform="translate(195 260) rotate(15) scale(470 270)">
    <stop stop-color="#082B59" stop-opacity=".55"/>
    <stop offset="1" stop-color="#020B1B" stop-opacity="0"/>
  </radialGradient>
  <radialGradient id="rightGlow" cx="0" cy="0" r="1" gradientUnits="userSpaceOnUse" gradientTransform="translate(1515 155) rotate(165) scale(520 260)">
    <stop stop-color="#123DFF" stop-opacity=".38"/>
    <stop offset="1" stop-color="#020B1B" stop-opacity="0"/>
  </radialGradient>
  <rect width="1920" height="560" fill="url(#leftGlow)"/>
  <rect width="1920" height="560" fill="url(#rightGlow)"/>
  <g opacity=".62">
    <path d="M640 300C790 246 880 284 1008 236C1168 176 1280 68 1453 59C1598 51 1706 121 1848 69" stroke="#0F5BFF" stroke-width="1.2" stroke-opacity=".28"/>
    <path d="M596 394C754 342 870 383 1016 327C1190 260 1280 152 1458 137C1612 124 1708 196 1886 137" stroke="#009DFF" stroke-width="1.1" stroke-opacity=".18"/>
    <path d="M678 230C820 181 930 213 1045 172C1197 118 1318 38 1468 32C1603 27 1706 83 1836 41" stroke="#2D7BFF" stroke-width="1" stroke-opacity=".18"/>
  </g>
  <g fill="#166BFF" opacity=".95">
    <circle cx="1222" cy="187" r="2.6"/>
    <circle cx="1254" cy="170" r="2.5"/>
    <circle cx="1286" cy="154" r="2.4"/>
    <circle cx="1318" cy="139" r="2.4"/>
    <circle cx="1350" cy="126" r="2.6"/>
    <circle cx="1382" cy="116" r="2.8"/>
    <circle cx="1414" cy="107" r="3"/>
    <circle cx="1446" cy="101" r="3.1"/>
    <circle cx="1478" cy="98" r="3.2"/>
    <circle cx="1510" cy="97" r="3.1"/>
    <circle cx="1542" cy="100" r="3"/>
    <circle cx="1574" cy="107" r="2.8"/>
    <circle cx="1606" cy="116" r="2.6"/>
    <circle cx="1638" cy="129" r="2.5"/>
    <circle cx="1670" cy="144" r="2.4"/>
    <circle cx="1702" cy="160" r="2.3"/>
    <circle cx="1734" cy="176" r="2.2"/>
    <circle cx="1766" cy="190" r="2.1"/>
    <circle cx="1208" cy="229" r="2.1"/>
    <circle cx="1240" cy="212" r="2.3"/>
    <circle cx="1272" cy="194" r="2.5"/>
    <circle cx="1304" cy="176" r="2.6"/>
    <circle cx="1336" cy="160" r="2.8"/>
    <circle cx="1368" cy="146" r="3"/>
    <circle cx="1400" cy="135" r="3.1"/>
    <circle cx="1432" cy="126" r="3.2"/>
    <circle cx="1464" cy="121" r="3.4"/>
    <circle cx="1496" cy="119" r="3.5"/>
    <circle cx="1528" cy="121" r="3.4"/>
    <circle cx="1560" cy="126" r="3.2"/>
    <circle cx="1592" cy="136" r="3.1"/>
    <circle cx="1624" cy="148" r="2.9"/>
    <circle cx="1656" cy="164" r="2.7"/>
    <circle cx="1688" cy="181" r="2.5"/>
    <circle cx="1720" cy="199" r="2.3"/>
    <circle cx="1752" cy="216" r="2.1"/>
    <circle cx="1178" cy="274" r="1.7"/>
    <circle cx="1210" cy="258" r="1.9"/>
    <circle cx="1242" cy="240" r="2.1"/>
    <circle cx="1274" cy="221" r="2.3"/>
    <circle cx="1306" cy="202" r="2.5"/>
    <circle cx="1338" cy="184" r="2.7"/>
    <circle cx="1370" cy="168" r="2.9"/>
    <circle cx="1402" cy="155" r="3.1"/>
    <circle cx="1434" cy="145" r="3.3"/>
    <circle cx="1466" cy="139" r="3.4"/>
    <circle cx="1498" cy="136" r="3.5"/>
    <circle cx="1530" cy="138" r="3.4"/>
    <circle cx="1562" cy="144" r="3.2"/>
    <circle cx="1594" cy="154" r="3"/>
    <circle cx="1626" cy="168" r="2.8"/>
    <circle cx="1658" cy="185" r="2.6"/>
    <circle cx="1690" cy="204" r="2.4"/>
    <circle cx="1722" cy="224" r="2.2"/>
    <circle cx="1754" cy="242" r="2"/>
    <circle cx="1786" cy="258" r="1.8"/>
    <circle cx="1818" cy="271" r="1.6"/>
    <circle cx="1850" cy="281" r="1.4"/>
  </g>
  <g stroke="#114070" stroke-opacity=".24" stroke-width="1">
    <path d="M0 512H1920"/>
    <path d="M0 513H1920" stroke="#0C5CFF" stroke-opacity=".28"/>
  </g>
</svg>
